HIERARCHY
ROOT Hips
{
	OFFSET 0.00000 0.00000 0.00000
	CHANNELS 6 Xposition Yposition Zposition Zrotation Yrotation Xrotation 
	JOINT LHipJoint
	{
		OFFSET 0 0 0
		CHANNELS 3 Zrotation Yrotation Xrotation
		JOINT LeftHip
		{
			OFFSET 1.81638 -1.86202 0.89635
			CHANNELS 3 Zrotation Yrotation Xrotation
			JOINT LeftKnee
			{
				OFFSET 2.63464 -7.23861 0.00000
				CHANNELS 3 Zrotation Yrotation Xrotation
				JOINT LeftAnkle
				{
					OFFSET 2.45871 -6.75336 0.00000
					CHANNELS 3 Zrotation Yrotation Xrotation
					JOINT LeftToe
					{
						OFFSET 0.34235 -0.94059 2.20020
						CHANNELS 3 Zrotation Yrotation Xrotation
						End Site
						{
							OFFSET 0.00000 -0.00000 1.18611
						}
					}
				}
			}
		}
	}
	JOINT RHipJoint
	{
		OFFSET 0 0 0
		CHANNELS 3 Zrotation Yrotation Xrotation
		JOINT RightHip
		{
			OFFSET -1.84405 -1.86203 0.89635
			CHANNELS 3 Zrotation Yrotation Xrotation
			JOINT RightKnee
			{
				OFFSET -2.71067 -7.44751 0.00000
				CHANNELS 3 Zrotation Yrotation Xrotation
				JOINT RightAnkle
				{
					OFFSET -2.47159 -6.79060 0.00000
					CHANNELS 3 Zrotation Yrotation Xrotation
					JOINT RightToe
					{
						OFFSET -0.26223 -0.72048 2.36007
						CHANNELS 3 Zrotation Yrotation Xrotation
						End Site
						{
							OFFSET -0.00000 -0.00000 1.23343
						}
					}
				}
			}
		}
	}
	JOINT lowerback
	{
		OFFSET 0 0 0
		CHANNELS 3 Zrotation Yrotation Xrotation
		JOINT Chest
		{
			OFFSET 0.02089 1.99248 -0.22512
			CHANNELS 3 Zrotation Yrotation Xrotation
			JOINT Chest2
			{
				OFFSET 0.01476 2.01356 -0.03079
				CHANNELS 3 Zrotation Yrotation Xrotation
				JOINT lowerneck
				{
					OFFSET 0 0 0
					CHANNELS 3 Zrotation Yrotation Xrotation
					JOINT Neck
					{
						OFFSET 0.04846 1.65098 0.06663
						CHANNELS 3 Zrotation Yrotation Xrotation
						JOINT Head
						{
							OFFSET -0.06061 1.60634 -0.07565
							CHANNELS 3 Zrotation Yrotation Xrotation
							End Site
							{
								OFFSET -0.02954 1.73562 -0.03642
							}
						}
					}
				}
				JOINT LeftCollar
				{
					OFFSET 0 0 0
					CHANNELS 3 Zrotation Yrotation Xrotation
					JOINT LeftShoulder
					{
						OFFSET 3.45234 1.47051 -0.06993
CHANNELS 3 Zrotation Xrotation Yrotation
						JOINT LeftElbow
						{
OFFSET 0 -5.493130 0.000000
CHANNELS 3 Zrotation Xrotation Yrotation
							JOINT LeftWrist
							{
OFFSET 0 -3.290370 0.000000
CHANNELS 3 Zrotation Xrotation Yrotation
								JOINT lhand
								{
									OFFSET 0 0 0
CHANNELS 3 Zrotation Xrotation Yrotation
									JOINT LFingers
									{
OFFSET 0 -0.729660 0.000000
CHANNELS 3 Zrotation Xrotation Yrotation
										End Site
										{
OFFSET 0 -0.588270 0.000000
										}
									}
								}
								JOINT LThumb
								{
OFFSET 0 0.000000 0.000000
CHANNELS 3 Zrotation Xrotation Yrotation
									End Site
									{
OFFSET 0 -0.597250 0.597250
									}
								}
							}
						}
					}
				}
				JOINT RightCollar
				{
					OFFSET 0 0 0
					CHANNELS 3 Zrotation Yrotation Xrotation
					JOINT RightShoulder
					{
						OFFSET -3.41935 1.44327 0.20453
CHANNELS 3 Zrotation Xrotation Yrotation
						JOINT RightElbow
						{
OFFSET 0 -5.236840 0.000000
CHANNELS 3 Zrotation Xrotation Yrotation
							JOINT RightWrist
							{
OFFSET 0 -3.382510 0.000000
CHANNELS 3 Zrotation Xrotation Yrotation
								JOINT rhand
								{
									OFFSET 0 0 0
CHANNELS 3 Zrotation Xrotation Yrotation
									JOINT RFingers
									{
OFFSET 0 -0.691450 0.000000
CHANNELS 3 Zrotation Xrotation Yrotation
										End Site
										{
OFFSET 0 -0.557470 0.000000
										}
									}
								}
								JOINT RThumb
								{
OFFSET 0 0.000000 0.000000
CHANNELS 3 Zrotation Xrotation Yrotation
									End Site
									{
OFFSET 0 -0.565980 0.565980
									}
								}
							}
						}
					}
				}
			}
		}
	}
}
MOTION
Frames: 8
Frame Time: 0.008333333333333333
-35.703000 17.582200 -3.042200 -15.145100 75.950700 -11.065400 0.000000 0.000000 0.000000 -11.486100 -9.518000 -22.171700 3.325800 11.204600 32.973200 0.126800 -12.901500 -10.608400 0.979600 6.300300 17.658100 0.000000 0.000000 0.000000 24.275400 10.066800 5.910400 -0.675100 -5.253900 14.634300 -1.784300 8.973000 -23.945900 -1.092400 -6.642200 18.659600 -0.426700 -1.280200 17.228100 2.803600 -1.278800 7.041400 3.430600 -0.530300 -2.053600 -1.288500 5.060700 0.452900 -5.669500 6.408800 -11.592700 -1.864000 3.552200 -3.693100 0.000000 -0.000000 0.000000 5.926900 22.602800 -32.990200 31.667500 -42.280500 12.516600 -0.715000 -7.335400 -12.819000 0.000000 0.000000 0.000000 -7.125000 0.000000 0.000000 -24.651900 41.408500 -2.344600 0.000000 -0.000000 0.000000 -27.693000 15.897700 63.095600 -26.958700 -38.139800 -9.473600 -13.773600 1.398400 15.566400 0.000000 0.000000 0.000000 7.125000 0.000000 -0.000000 12.976400 45.573900 -0.187000
-35.703517 17.581886 -3.038567 -15.234426 75.971813 -11.183906 0.000000 0.000000 0.000000 -11.458089 -9.526393 -22.131663 3.323600 11.201320 32.961918 0.129789 -12.952625 -10.674050 0.924694 6.125541 17.149304 0.000000 0.000000 0.000000 24.327646 10.085837 5.959040 -0.674767 -5.252566 14.630385 -1.779511 8.881599 -23.912017 -1.074189 -6.588229 18.501076 -0.405337 -1.280506 17.191976 2.782162 -1.277967 7.037978 3.394546 -0.529722 -2.039550 -1.252810 5.094823 0.405169 -5.701988 6.455614 -11.593715 -1.880238 3.575095 -3.680802 0.000000 0.000000 0.000000 5.977396 22.585606 -32.997990 31.693677 -42.301580 12.534136 -0.734055 -7.618805 -12.861637 0.000000 0.000000 0.000000 -7.125000 0.000000 0.000000 -24.683344 41.445476 -2.323826 0.000000 0.000000 0.000000 -27.667314 15.978371 63.045838 -26.919185 -38.102021 -9.449184 -14.036199 1.591247 15.537723 0.000000 0.000000 0.000000 7.125000 0.000000 0.000000 12.729426 45.577513 -0.184447
-35.703528 17.581461 -3.035067 -15.170530 75.996654 -11.157277 0.000000 0.000000 0.000000 -11.479852 -9.507639 -22.086086 3.318961 11.194323 32.938124 0.131633 -13.014685 -10.731824 0.869497 5.945309 16.625854 0.000000 0.000000 0.000000 24.327330 10.047226 5.989054 -0.675906 -5.257122 14.643383 -1.777789 8.841552 -23.899456 -1.060040 -6.546104 18.377460 -0.419191 -1.272096 17.158220 2.749697 -1.271712 7.037038 3.365930 -0.526884 -2.023936 -1.286731 5.097982 0.335378 -5.641366 6.467725 -11.561363 -1.850694 3.578682 -3.658804 0.000000 0.000000 0.000000 6.019095 22.546228 -32.991081 31.691190 -42.299595 12.532512 -0.795248 -7.818472 -12.889540 0.000000 0.000000 0.000000 -7.125000 0.000000 0.000000 -24.744299 41.464823 -2.317660 0.000000 0.000000 0.000000 -27.621561 16.057463 62.948028 -26.885669 -38.069941 -9.428546 -14.131691 1.604861 15.566423 0.000000 0.000000 0.000000 7.125000 0.000000 0.000000 12.651186 45.617874 -0.196132
-35.703708 17.581500 -3.032067 -15.149770 76.024547 -11.159960 0.000000 0.000000 0.000000 -11.488234 -9.508392 -22.049895 3.314942 11.188267 32.917452 0.134483 -13.059762 -10.791468 0.822630 5.786702 16.166911 0.000000 0.000000 0.000000 24.338514 10.046498 6.017963 -0.676558 -5.259458 14.650091 -1.772909 8.769626 -23.864971 -1.034661 -6.469534 18.153111 -0.426801 -1.252094 17.121986 2.721502 -1.250336 7.009371 3.335862 -0.516651 -2.036388 -1.257276 5.086136 0.383619 -5.642168 6.450388 -11.575776 -1.857904 3.569435 -3.672495 0.000000 0.000000 0.000000 6.099374 22.560744 -33.077930 31.690724 -42.299199 12.532150 -0.845735 -7.704074 -12.846923 0.000000 0.000000 0.000000 -7.125000 0.000000 0.000000 -24.770522 41.421256 -2.349187 0.000000 0.000000 0.000000 -27.551807 16.181009 62.753964 -26.871118 -38.056001 -9.419526 -13.833957 1.142046 15.652682 0.000000 0.000000 0.000000 7.125000 0.000000 0.000000 12.947394 45.667195 -0.216864
-35.703867 17.581111 -3.029012 -15.168263 76.051685 -11.206748 0.000000 0.000000 0.000000 -11.487733 -9.502801 -22.010394 3.310612 11.181667 32.895169 0.136722 -13.110981 -10.848125 0.776251 5.625056 15.700442 0.000000 0.000000 0.000000 24.362285 10.041979 6.051916 -0.677433 -5.262634 14.659245 -1.768090 8.699953 -23.831153 -1.016480 -6.414328 17.991418 -0.424578 -1.237780 17.092681 2.695904 -1.234002 6.989114 3.303927 -0.508623 -2.044298 -1.232426 5.077579 0.407241 -5.642445 6.438413 -11.584554 -1.863255 3.562823 -3.679532 0.000000 0.000000 0.000000 6.170112 22.560467 -33.149388 31.677937 -42.288914 12.523569 -0.905291 -7.560557 -12.747434 0.000000 0.000000 0.000000 -7.125000 0.000000 0.000000 -24.783401 41.325021 -2.414231 0.000000 0.000000 0.000000 -27.492275 16.291862 62.599167 -26.850192 -38.036025 -9.406724 -13.671026 0.843623 15.752928 0.000000 0.000000 0.000000 7.125000 0.000000 0.000000 13.125538 45.746798 -0.246229
-35.704206 17.580589 -3.026245 -15.195780 76.080881 -11.264583 0.000000 0.000000 0.000000 -11.486550 -9.499789 -21.972210 3.307792 11.177359 32.880391 0.139308 -13.163322 -10.908342 0.732813 5.468908 15.250984 0.000000 0.000000 0.000000 24.387415 10.030588 6.093487 -0.677042 -5.261120 14.654912 -1.759740 8.636042 -23.773429 -1.002303 -6.370774 17.864048 -0.419868 -1.223761 17.069934 2.670477 -1.217553 6.968829 3.271000 -0.500476 -2.055717 -1.207038 5.066558 0.434195 -5.641253 6.423317 -11.594748 -1.868221 3.554518 -3.687840 0.000000 0.000000 0.000000 6.244356 22.557506 -33.238230 31.648718 -42.265319 12.503924 -0.965703 -7.263422 -12.560241 0.000000 0.000000 0.000000 -7.125000 0.000000 0.000000 -24.765220 41.149213 -2.528156 0.000000 0.000000 0.000000 -27.429761 16.400701 62.437907 -26.829934 -38.016551 -9.394194 -13.474189 0.509344 15.869467 0.000000 0.000000 0.000000 7.125000 0.000000 0.000000 13.340128 45.838225 -0.281071
-35.704383 17.580067 -3.023717 -15.236707 76.111943 -11.338367 0.000000 0.000000 0.000000 -11.484117 -9.501016 -21.929559 3.304884 11.173051 32.865603 0.142383 -13.212856 -10.972569 0.691525 5.315999 14.812127 0.000000 0.000000 0.000000 24.415760 10.017020 6.139690 -0.676400 -5.258767 14.648152 -1.752252 8.567998 -23.721211 -0.988703 -6.328575 17.740892 -0.412019 -1.210636 17.054719 2.646005 -1.201520 6.948438 3.237590 -0.492252 -2.071296 -1.177157 5.054403 0.466892 -5.643966 6.406187 -11.610080 -1.875632 3.545402 -3.698847 0.000000 0.000000 0.000000 6.321467 22.555234 -33.346126 31.604977 -42.230008 12.474490 -1.024604 -6.816571 -12.287796 0.000000 0.000000 0.000000 -7.125000 0.000000 0.000000 -24.715462 40.895959 -2.689046 0.000000 0.000000 0.000000 -27.367230 16.508943 62.271702 -26.812054 -37.999370 -9.383219 -13.249399 0.146595 15.988642 0.000000 0.000000 0.000000 7.125000 0.000000 0.000000 13.581281 45.928331 -0.317042
-35.704372 17.579572 -3.021364 -15.280990 76.144461 -11.418578 0.000000 0.000000 0.000000 -11.483354 -9.507644 -21.879606 3.301712 11.168190 32.849235 0.146227 -13.257815 -11.042642 0.652368 5.166290 14.383514 0.000000 0.000000 0.000000 24.443839 9.996840 6.191769 -0.675106 -5.254066 14.634608 -1.746001 8.497782 -23.677322 -0.974810 -6.285407 17.614692 -0.403415 -1.198539 17.044766 2.621781 -1.186462 6.930293 3.204261 -0.484610 -2.087096 -1.149246 5.042297 0.492069 -5.642798 6.389637 -11.622751 -1.880988 3.536358 -3.707671 0.000000 0.000000 0.000000 6.400339 22.549705 -33.473273 31.546453 -42.182611 12.435223 -1.076373 -6.247740 -11.953220 0.000000 0.000000 0.000000 -7.125000 0.000000 0.000000 -24.638770 40.587040 -2.882416 0.000000 0.000000 0.000000 -27.305118 16.610666 62.104360 -26.795123 -37.983093 -9.372775 -13.018456 -0.216938 16.098222 0.000000 0.000000 0.000000 7.125000 0.000000 0.000000 13.825611 46.007913 -0.350626
